<?xml version="1.0" standalone="no"?>
<!DOCTYPE svg PUBLIC "-//W3C//DTD SVG 1.1//EN" "http://www.w3.org/Graphics/SVG/1.1/DTD/svg11.dtd" >
<svg xmlns="http://www.w3.org/2000/svg">
<metadata>
Created by FontPrep 20130207 at Fri Jun 28 20:14:05 2013
 By Tyler Gaw
_null_name_substitute_
</metadata>
<defs>
<font id="cdcc4b7c46b7fffd4fe45cec8a36dd26" >
  <font-face 
    font-family="Slenderman-Regular"
    font-weight="400"
    font-stretch="condensed"
    units-per-em="2048"
    panose-1="0 0 5 6 0 0 0 0 0 0"
    ascent="1638"
    descent="-410"
    x-height="1028"
    cap-height="1789"
    bbox="-44.8462 -398.333 1006 1837"
    underline-thickness="102"
    underline-position="-102"
    unicode-range="U+0020-2212"
  />
<missing-glyph horiz-adv-x="512" 
 />
    <glyph glyph-name=".notdef" horiz-adv-x="512" 
 />
    <glyph glyph-name=".null" horiz-adv-x="0" 
 />
    <glyph glyph-name="nonmarkingreturn" horiz-adv-x="681" 
 />
    <glyph glyph-name="space" unicode=" " horiz-adv-x="348" 
 />
    <glyph glyph-name="exclam" unicode="!" horiz-adv-x="284" 
d="M188 35q-2 -19 -11 -31q-18 -25 -47 1q-29 25 -10 55t32 30q36 -4 36 -55zM160 211l2 -59l-25 -7q-6 14 -6 56l-8 385q0 314 -8 422q-6 178 -6 600l2 53q0 14 43 33l-4 -543q-8 -7 -4 -239t4 -242l2 -232q-4 -31 2 -122t6 -105z" />
    <glyph glyph-name="quotedbl" unicode="&#x22;" horiz-adv-x="188" 
d="M114 1520q-8 0 -10 4q14 51 13 115q-2 65 -2 83q1 4 32 0q-6 -27 -26 -200q1 -2 -7 -2zM50 1520q-9 0 -9 2q13 47 12 114q-2 66 -2 84q-1 4 17 4t18 -4q-14 -59 -27 -196q0 -4 -9 -4z" />
    <glyph glyph-name="numbersign" unicode="#" horiz-adv-x="1046" 
d="M561 637q20 39 49 178t33 174l-47 4q-125 11 -141 4q-6 -16 -66 -352q3 -10 74 -8t98 0zM410 1001l-293 3q-10 5 2 25q12 21 14 22q73 -1 175 -7q101 -6 108 -4q29 80 45 166q18 125 39 199q9 9 32 13q23 3 24 -2t-29 -119t-31 -126l-29 -129l74 -6q68 -2 112 -6
q72 266 82 379q4 10 56 2q-5 -14 -45 -191t-44 -192l99 -4q182 0 203 -6q2 -4 2 -7t-4 -13t-6 -13q-1 -4 -3 -6l-297 8l-82 -350l158 -6q35 0 77 2t62 -4q0 -35 -6 -37t-12 -2l-8 2q-82 -4 -279 -4q-11 0 -46 -169t-44 -194q-4 -12 -55 0l22 82q68 237 68 285l-86 2l-73 6
q-8 0 -13 -8q-2 -16 -37 -181t-37 -175q-21 -5 -35 -5t-17 8t22 105q24 98 28 128t16 74q13 42 15 42t-4 10q-8 -2 -148 5t-141 7v13q7 33 20 36q2 0 128 -9t151 -3q14 4 42 170t28 184z" />
    <glyph glyph-name="dollar" unicode="$" horiz-adv-x="438" 
d="M328 696q0 25 -26 57t-64 50l-7 -701q20 -2 82 29q20 13 16 63q-3 50 -2 96t1 406zM213 850l6 786q-80 -2 -84 -47q-6 -68 -6 -272q-6 -127 2 -291q3 -35 29 -94t53 -82zM199 102q10 36 10 344v259q0 84 2 114q-41 23 -72 93t-33 114q-2 45 0 271q2 225 4 273t23 60
q25 25 88 31q-4 61 2 151h6q6 0 15 -2h8q-14 -45 -8 -149l67 -19q33 -12 37 -100q0 -98 -4 -151l-20 4l4 180q0 23 -21 43q-20 24 -67 18q-2 -20 0 -67t2 -269t-4 -294v-168l8 -7q23 -9 69 -51q37 -43 37 -86q14 -315 -8 -555q-4 -33 -33 -47t-80 -24q-2 -14 -2 -193l-8 2
q-22 0 -22 6v185q0 3 -42 13q-42 11 -53 19q-20 16 -20 88l-2 73v15q0 4 31 11q0 -8 -5 -77t17 -83q6 -4 36 -14t38 -11z" />
    <glyph glyph-name="percent" unicode="%" horiz-adv-x="579" 
d="M336 664q-18 -68 13 -109q17 -23 44 -25q45 -6 82 58q17 24 19 58t-20 63t-50 31t-52 -20q-24 -24 -36 -56zM311 596q-8 47 11 89q18 42 37 60t26 19q33 8 77 -20t54 -70t-10 -92q-20 -51 -62 -70q-115 -51 -133 84zM171 1042q46 0 65 39q18 39 4 80q-6 29 -37 53t-49 22
q-18 -3 -36 -25q-18 -23 -22 -33q-2 -10 -7 -32t-7 -26q-8 -34 18 -56t71 -22zM61 1122q0 40 30 90q54 88 139 7q40 -37 39 -85t-31 -79t-77 -29q-46 2 -73 29t-27 67zM121 494l-29 17q-8 7 -5 13t14 30t53 109t66 134q22 49 50 97t113 206q84 160 96 178q7 7 19 -3
q12 -11 7 -20t-77 -145t-74 -141q-109 -190 -209 -408q-2 -3 -11 -35q-10 -32 -13 -32z" />
    <glyph glyph-name="ampersand" unicode="&#x26;" horiz-adv-x="520" 
d="M209 893h7q3 0 5 -2v-27q-33 2 -50 -20t-21 -50q-4 -27 -3 -108q-6 -70 -10 -320t0 -311q6 -61 117 -61q68 6 77 43t15 301t2 326l-29 10q-16 2 -43 -7t-32 -18l-11 10q23 29 63 32t74 -21t46 -23q12 0 39 35l10 -8q-17 -29 -27 -36q-26 -20 -67 11q4 -53 -1 -317
q-6 -264 -12 -290t-11 -36q-16 -36 -73 -37h-54q-28 -1 -60 13t-41 34q-10 31 -10 69q0 486 10 589q8 178 41 194l26 15q-48 23 -46 98q1 33 1 349t15 376q2 18 30 35q78 39 142 -15q14 -40 16 -86t2 -301q-26 -7 -27 0q4 33 0 189t-9 180t-62 24t-68 -24q-16 -70 -16 -739
q4 -55 30 -69q12 -6 15 -7z" />
    <glyph glyph-name="quotesingle" unicode="'" horiz-adv-x="133" 
d="M49 1520q-8 0 -8 4q13 47 12 114q-2 66 -2 84q1 10 21 6t20 -6q-25 -94 -33 -200q-2 -2 -10 -2z" />
    <glyph glyph-name="parenleft" unicode="(" horiz-adv-x="380" 
d="M131 537v-43q3 -43 23 -122q20 -80 34 -150t22 -98q9 -28 47 -104t42 -83q0 -4 -31 -27q-10 25 -57 133t-56 172q-9 63 -44 184q-15 82 -20 196t-8 158t1 261t8 280q16 143 32 218t75 223l24 -15q-59 -135 -73 -214t-24 -219q-11 -140 -9 -384q2 -243 8 -289t6 -77z" />
    <glyph glyph-name="parenright" unicode=")" horiz-adv-x="356" 
d="M141 -51l-35 10q0 10 12 40q12 31 40 147t52 212t23 154q6 76 10 263q3 187 -3 300t-56 369q-8 65 -53 177t-49 120q14 8 29 8q12 -19 45 -122q32 -103 60 -240q26 -138 42 -213t16 -285l-6 -301q0 -90 -15 -158t-29 -131t-30 -129q-14 -66 -53 -221z" />
    <glyph glyph-name="asterisk" unicode="*" horiz-adv-x="550" 
d="M172 903l-57 27l28 43q87 120 109 176q-4 14 -186 47l-5 61l203 -55v238l68 22l-13 -260l183 37l8 -65l-178 -29q63 -55 162 -199l-48 -33l-149 209z" />
    <glyph glyph-name="plus" unicode="+" horiz-adv-x="602" 
d="M43 799h242v196q0 51 2 54l28 2v-252h58q168 0 186 2l-2 -33l-98 2q-80 4 -142 -2v-41q0 -109 -6 -207l-28 4q4 40 4 102v142q-239 0 -244 -2q-2 0 -2 8v17z" />
    <glyph glyph-name="comma" unicode="," horiz-adv-x="129" 
d="M98 111q11 -116 -47 -199q-3 -3 -11 2q-7 6 -5 8q37 45 41 80l-39 8q-6 10 -7 47t7 47q10 10 34 10t27 -3z" />
    <glyph glyph-name="hyphen" unicode="-" horiz-adv-x="540" 
d="M452 758h-34q-16 -6 -148 -3t-151 3h-41q-12 -2 -37 2v31q14 2 41 2h37q60 -1 143 -5q82 -4 152 -2q35 6 86 2l-13 -28q-11 -2 -35 -2z" />
    <glyph glyph-name="period" unicode="." horiz-adv-x="159" 
d="M57 131q66 -8 80 -53q6 -20 -8 -45q-29 -52 -77 -30q-19 9 -25 28q-16 47 10 86q8 14 20 14z" />
    <glyph glyph-name="slash" unicode="/" horiz-adv-x="430" 
d="M53 -2h-10q52 328 99 678q48 351 198 1005q16 76 29 88l22 -12q-19 -63 -33 -137t-55 -238t-51 -244t-39 -231q-29 -152 -72 -461t-53 -440q0 -8 -35 -8z" />
    <glyph glyph-name="zero" unicode="0" horiz-adv-x="483" 
d="M371 1210q-73 -242 -146 -403q-14 -31 -31 -87t-28 -81q-57 -137 -57 -199q-4 -260 14 -381q6 -41 107 -42t118 51q18 81 15 122q-3 42 -1 66q27 328 13 528q0 395 -4 426zM344 1672q-16 44 -94 52q-121 -6 -139 -172q-4 -12 1 -181t-12 -501q0 -25 4 -168t0 -182
q33 109 143 409q109 300 109 302q23 68 6 287q-2 16 -2 63t-16 91zM399 479q0 -71 -3 -101t-5 -158q-1 -128 -25 -181t-132 -54t-130 48q-18 38 -18 119q0 80 -3 128t1 179t-2 200q2 241 1 407t3 258t5 151q3 156 39 211t111 57t115 -37q31 -31 31 -418q18 -391 12 -727v-82
z" />
    <glyph glyph-name="one" unicode="1" horiz-adv-x="417" 
d="M336 14q0 -16 -2 -16l-121 -2l-129 4q-4 2 -1 14t7 15q16 0 105 -2q-4 70 6 257q10 188 9 250t3 266t1 275t6 321t16 300l-93 -54q-2 0 -7 8t0 13q5 4 50 30t45 42q5 4 17 -2t14 -13q-6 -197 -18 -430q-8 -43 -4 -216t4 -223v-160q0 -110 -3 -185q-3 -76 -7 -252t-7 -225
l101 2q8 -1 8 -17z" />
    <glyph glyph-name="two" unicode="2" horiz-adv-x="454" 
d="M166 1296q-8 0 -10 4q0 244 39 340q14 37 36 66q37 51 68 37q47 -20 53 -82q25 -213 4 -422q-8 -80 -34 -242t-38 -272q-11 -111 -42 -213t-48 -208t-25 -140q-8 -35 -24 -84q-16 -50 -14 -49q170 0 229 8q8 -2 12 -17t-3 -18q-25 -8 -147 -10t-138 6q-6 4 22 81t55 221
q28 144 53 238q25 93 45 237q19 144 42 300t31 230t1 226t-44 181q-39 -18 -63 -66t-30 -106q-15 -159 -8 -244h-8q-6 -2 -14 -2z" />
    <glyph glyph-name="three" unicode="3" horiz-adv-x="423" 
d="M121 1420q0 -87 -2 -97q-8 -14 -31 -10q-8 5 -5 21t6 120q6 225 81 279q18 12 64 12t62 -18q34 -40 34 -79v-66q0 -28 6 -86t2 -179q0 -227 -14 -381q-2 -24 -24 -60t-62 -55q55 -5 83 -73q29 -68 23 -124t-4 -198q2 -140 2 -162t1 -59q1 -44 -5 -87q-6 -44 -41 -88
t-106 -41t-99 58q-10 20 -10 171l2 175q0 4 11 6t13 -9t1 -88q-2 -77 0 -154t12 -93t42 -30t50 -11q76 18 88 58q28 101 20 237q-8 137 -5 225t-15 177q-16 94 -102 84q-18 0 -2 57q65 4 81 50t18 96q1 48 4 74t4 123t3 124q6 23 2 105t-4 85q2 129 -16 168q-19 39 -58 41
q-75 4 -95 -119q-15 -92 -15 -179z" />
    <glyph glyph-name="four" unicode="4" horiz-adv-x="460" 
d="M119 1757q28 0 28 -16q-25 -276 -21 -404t-3 -286q-6 -158 -6 -199q10 -2 23 -2l93 8q111 6 111 10q-4 18 -1 276t0 402q-3 143 1 209l6 2q20 -4 29 -18q-9 -63 -5 -295q5 -231 1 -416v-194q0 -25 -5 -124t-1 -135q-9 -459 -9 -470t7 -97q-1 -6 -21 -7t-22 5q-6 64 5 234
t7 229q10 143 2 250v117q-2 0 -126 -10t-130 -7l6 82l12 379l11 477h8z" />
    <glyph glyph-name="five" unicode="5" horiz-adv-x="395" 
d="M139 1352q0 -126 -10 -312q-10 -184 0 -186t35 6q103 33 130 -20q13 -27 11 -74q10 -283 -8 -530q-19 -189 -29 -205q-10 -15 -16 -21t-34 -20t-71 -3t-49 44q-4 16 -12 159t-2 158l29 -10q-4 -12 -1 -152t15 -160t52 -20t56 17q31 33 35 149v57q2 13 5 111t2 132t3 166
q4 130 -4 150q-8 49 -30 54q-23 4 -79 -10t-58 -15q-2 0 -3 94v236q18 176 0 442q-4 33 -4 88t9 74q14 0 106 3t94 -1l2 -27q-16 -6 -180 -6l2 -121q4 -121 4 -247z" />
    <glyph glyph-name="six" unicode="6" horiz-adv-x="434" 
d="M125 494l2 -301q0 -109 26 -140t74 -24q78 0 92 127q6 41 10 128q3 86 6 118t2 111t-1 103q2 90 -34 170t-79 80q-90 -16 -96 -19t-8 -18t1 -166t5 -169zM216 0q-89 0 -101 59q-21 92 -19 218q2 127 1 177t-1 116t-3 102q-3 35 0 215t-2 465t20 340q33 74 75 73
q98 0 127 -69q35 -90 31 -234v-95q0 -91 -2 -124l-20 -2q8 246 -31 445q-12 59 -103 53q-33 -3 -54 -53q-5 -14 -7 -27q-23 -162 -14 -258q10 -205 8 -285t0 -150t-2 -98q63 21 110 22q48 1 93 -77q45 -90 36 -285q-2 -43 0 -115t-2 -106q-4 -33 -11 -115t-17 -118
q-23 -74 -112 -74z" />
    <glyph glyph-name="seven" unicode="7" horiz-adv-x="335" 
d="M72 1735q16 6 96 4t96 0l-18 -277q-20 -279 -44 -593t-27 -358t-7 -277t-8 -242h-8q-23 -6 -23 8q4 18 12 280q7 262 21 386t19 236t18 258q12 146 23 306t20 246l-166 -6z" />
    <glyph glyph-name="eight" unicode="8" horiz-adv-x="415" 
d="M214 29q65 0 73 57q4 31 6 83q2 53 5 89t4 184t5 210q4 64 3 108q-2 95 -77 96q-33 2 -61 -8t-33 -21q-33 -57 -22 -231q-6 -62 -6 -375l-5 -103q0 -74 29 -84q14 -5 79 -5zM221 885q47 0 67 20t23 49q4 29 1 61t1 72l13 308q0 284 -9 311q-2 6 -37 18t-62 6
q-26 -6 -34 -8t-15 -6t-10 -7t-6 -10t-7 -12t-5 -20q-2 -16 -3 -57t-10 -156t-3 -340q0 -170 31 -207q18 -22 65 -22zM306 885q-15 -14 -38 -15q48 -16 58 -40t13 -49q3 -28 -1 -90t-3 -145t-7 -193t-9 -154q4 -123 -26 -176q-14 -19 -80 -23q-67 -4 -93 14t-32 40t-6 91
q-10 362 4 531q0 167 78 192h4q-51 10 -66 152q-10 256 17 643q6 53 35 71q30 18 102 20q72 1 84 -38q14 -55 10 -227q4 -55 0 -127q-14 -250 -14 -350q0 -101 -30 -127z" />
    <glyph glyph-name="nine" unicode="9" horiz-adv-x="391" 
d="M299 1694q0 25 -84 30q-23 2 -49 -8t-35 -24q-32 -65 -26 -182q5 -118 3 -152t-2 -125q0 -90 -2 -137v-187q4 -29 52 -29t74 12q26 11 26 15q2 45 15 197q28 327 28 590zM257 0q-30 0 -32 8q2 6 6 110q3 104 9 236t6 184q0 109 8 221t6 120q-60 -31 -122 -21t-62 43
q10 233 4 347t0 247l-2 115q0 68 31 104q10 16 42 28q33 12 69 8q36 -3 52 -6q16 -2 34 -16t18 -50t-8 -184q-8 -146 -3 -208l-18 -211q1 -82 -13 -351t-12 -331v-61q4 -88 -2 -332h-11z" />
    <glyph glyph-name="colon" unicode=":" horiz-adv-x="286" 
d="M100 180q-24 31 -20 67t38 48t58 -1t28 -46t-4 -43q-9 -10 -34 -31q-39 -39 -66 6zM193 971v-13q4 -20 6 -28q9 -37 -13 -47t-56 11t-40 52q-6 32 19 54t53 16q31 -10 31 -45z" />
    <glyph glyph-name="semicolon" unicode=";" horiz-adv-x="235" 
d="M127 119q-25 0 -31 9t-7 46t7 47q10 10 34 10t26 -4q2 -31 -3 -81t-11 -66t-21 -36q-13 -20 -21 -13q-8 6 -6 8q37 51 41 80h-8zM166 989v-12q4 -21 6 -29q9 -36 -13 -46q-21 -11 -55 10q-34 20 -41 52q-6 32 19 54q24 22 54 14t30 -43z" />
    <glyph glyph-name="less" unicode="&#x3c;" horiz-adv-x="782" 
d="M721 1001l16 -26q-141 -70 -375 -152q-233 -81 -288 -104q4 -8 169 -43t279 -53q27 -7 120 -25t120 -29l-23 -43q-8 6 -65 16t-118 33q-61 22 -222 52q-160 30 -217 45l-97 45l93 47l30 10q33 12 82 30q208 74 307 122q140 48 189 75z" />
    <glyph glyph-name="equal" unicode="=" horiz-adv-x="733" 
d="M129 672h35q35 4 401 -6l41 -4h37l8 -31h-88q-260 10 -341 7t-140 5l12 27q8 2 35 2zM651 889h-88q-99 4 -253 3t-228 9l2 29q40 0 82 2t215 -4q174 -6 184 -6l41 -2h37z" />
    <glyph glyph-name="greater" unicode="&#x3e;" horiz-adv-x="749" 
d="M47 1024q51 -33 184 -88q174 -90 350 -162l60 -26l88 -52l-98 -41q-51 -8 -203 -26t-227 -39q-74 -21 -112 -29t-48 -14l-21 45q27 6 101 18t100 21q63 12 225 28t205 25q12 4 25 18q-12 6 -276 121t-369 174z" />
    <glyph glyph-name="question" unicode="?" horiz-adv-x="319" 
d="M134 74q34 0 34 -37t-43 -37q-27 2 -26 38t35 36zM229 1102q0 344 3 383q4 39 4 121t-4 100t-38 26q-32 8 -58 -4q-26 -14 -27 -32q-13 -47 -13 -188v-152q0 -82 -2 -96l-31 2l-2 30v31q0 310 24 375q24 66 58 63q94 8 109 -26q4 -8 4 -90v-1016q0 -25 -22 -51
q-22 -27 -35 -50q-66 -90 -52 -266q0 -50 3 -86q0 -6 -18 -4t-18 13v86q-3 192 46 257q39 43 52 75t11 83q6 72 6 416z" />
    <glyph glyph-name="at" unicode="@" horiz-adv-x="735" 
d="M502 782l-8 328l-5 119q-104 20 -180 -12q-17 -8 -35 -25q-34 -31 -34 -78q-31 -220 -35 -462t6 -316t42 -142t64 -77q82 -13 138 14q10 4 19 46t19 296q9 254 9 309zM520 1180q0 -51 5 -117t1 -250t-11 -393t-7 -222q0 -46 24 -54q24 -9 52 -9q27 0 42 26t15 44
q57 423 18 850q-16 187 -31 253q-16 66 -54 94t-96 44t-137 7t-130 -60q-80 -162 -94 -232q-47 -297 -48 -482t25 -363t43 -228q16 -49 39 -71t125 -72q113 -39 236 20q23 23 41 35l22 -23q-23 -20 -81 -43q-59 -22 -111 -32t-153 32t-128 115q-161 627 -27 1129
q14 49 38 112t28 78q33 59 104 86q55 34 177 16t155 -67q49 -72 55 -143q0 -4 20 -173q39 -323 -15 -890q-2 -8 -14 -43t-59 -42q-46 -7 -79 19q-5 5 -16 33q-2 -4 -7 -23t-22 -28q-51 -43 -148 -23q-35 14 -63 51q-46 106 -60 178q-14 73 -15 345t46 493q17 51 55 77
t108 32t87 -4q41 -10 43 -20t2 -62z" />
    <glyph glyph-name="A" unicode="A" horiz-adv-x="499" 
d="M131 774l256 -16q5 174 -21 452t-22 414q0 92 -39 139q-74 -150 -100 -389q-8 -92 -40 -276t-34 -324zM131 745q0 -255 -17 -367q-16 -112 -24 -206t-24 -154q-25 2 -27 9q17 59 25 167t24 202q16 96 16 352v16q0 138 33 330t41 282q27 256 113 416q2 4 9 6t11 -2
q63 -60 61 -192t24 -422q28 -290 20 -430t8 -379q0 -41 14 -176t13 -177q-1 -2 -15 -2t-14 5q3 24 -20 281q-23 258 -15 425q-111 11 -256 19v-3z" />
    <glyph glyph-name="B" unicode="B" horiz-adv-x="499" 
d="M356 617q0 49 -27 74t-39 29l-21 7q-10 4 -40 4h-75q0 -11 -9 -79t-13 -308t-1 -354q49 -16 131 0q64 14 78 168t15 282t1 177zM242 758q23 0 41 -6q66 38 68 128q1 40 -2 93q-4 74 9 311q35 419 -34 477q-33 29 -136 13q-14 -31 -14 -97l2 -24v-131q0 -135 -2 -222
l-2 -147q0 -242 -14 -395h84zM383 621v-76q-4 -250 -17 -407t-100 -175q-62 -10 -90 -10t-63 14q-8 4 -9 13q-4 72 1 336t23 414q18 151 17 423l2 147q2 86 3 222v131l-3 22q0 80 21 117q6 6 10 6q115 20 164 -16q49 -42 53 -188t-10 -312q-10 -174 -10 -227l4 -174
q0 -92 -68 -144q72 -43 72 -116z" />
    <glyph glyph-name="C" unicode="C" horiz-adv-x="489" 
d="M354 1438q0 -14 -12 -15q-14 0 -14 15v188q0 16 1 46t-1 52t-22 51q-20 28 -58 35q-60 -20 -60 -127q-4 -12 -4 -41q-18 -143 -20 -408t-10 -386q-16 -203 26 -698v-27q6 -94 50 -111q24 -8 63 -8q53 10 66 60t8 163l-2 95q0 14 14 14q16 -4 12 -14l2 -95q2 -59 2 -110
q-1 -51 -25 -91t-73 -49h-12q-57 0 -88 27q-31 26 -36 50t-7 69v24q-43 500 -27 703q8 122 8 370q-1 248 13 344t14 122q4 133 82 151h4q81 -17 95 -70q13 -53 13 -114l-2 -27q2 -68 0 -131v-57z" />
    <glyph glyph-name="D" unicode="D" horiz-adv-x="505" 
d="M168 1599v-81l-14 -297q0 -103 -12 -493t-7 -564l-2 -78q-2 -37 0 -84q2 2 8 2t11 2q106 8 135 47q2 4 8 10q31 31 35 80t8 168l18 721q2 78 11 203q28 382 -41 478q-39 54 -127 59q-17 -1 -21 -5q-10 -55 -10 -168zM193 1798q23 0 49 -4h2q133 -31 151 -209
q14 -127 2 -302t-14 -251l-18 -721q-4 -119 -10 -177t-40 -87q-6 -6 -8 -10q-33 -43 -151 -57q-12 -2 -33 -7h-2q-13 0 -15 13q-4 39 0 102l3 74q-4 262 5 542t12 454t8 241t7 119v81q0 185 17 185q12 14 35 14z" />
    <glyph glyph-name="E" unicode="E" horiz-adv-x="505" 
d="M115 -18q-13 0 -13 14q20 291 21 768v149q-4 551 18 865q-1 12 15 13t106 1t114 7t27 -6q4 -13 -10 -17q-37 -10 -139 -11h-86q-23 -309 -18 -852v-133q31 2 96 2h4q84 0 121 4q14 0 14 -13q1 -13 -25 -15t-110 -2h-4q-68 0 -96 -2q0 -459 -21 -740q55 16 143 20t108 11
q20 6 23 -7q4 -13 -10 -18q-29 -8 -121 -12t-153 -26h-4z" />
    <glyph glyph-name="F" unicode="F" horiz-adv-x="477" 
d="M125 -31q-12 0 -12 13q6 298 -2 910t-9 880q1 10 15 14l254 14q14 0 14 -13t-12 -13l-244 -15q0 -264 8 -747l2 -205q29 2 97 2t116 2q10 4 15 -12q0 -10 -15 -15q-47 -2 -129 -2l-84 -2q8 -471 0 -798q0 -12 -12 -13h-2z" />
    <glyph glyph-name="G" unicode="G" 
d="M211 1686v-27q-51 -475 -37 -854v-227q-4 -184 4 -297v-56q-4 -58 28 -111q3 -4 4 -8q0 -4 16 -34t35 -49q19 -18 56 -13q75 8 95 116t16 265q-4 158 10 248q-22 12 -62 4q-77 -16 -69 13q5 12 15 10t45 2q59 14 94 -11q6 -2 6 -14q-16 -90 -12 -256t-15 -256
q-29 -135 -118 -147q-6 -2 -26 -2t-44 16t-33 32q-10 16 -19 34t-15 28q-38 75 -33 133v54q-8 115 -5 299v225q-14 383 37 860v8q0 13 2 19t4 14t8 24t12 34q7 16 29 34t52 19h2q96 -4 106 -125q3 -24 17 -94t-6 -128q-6 -12 -19 -8q-12 4 -8 17q20 49 6 119t-16 92
q-6 98 -80 100q-49 0 -69 -62q-8 -24 -10 -31q-3 -7 -3 -9z" />
    <glyph glyph-name="H" unicode="H" 
d="M434 1769q-12 -24 -12 -217l-6 -295q-7 -123 -8 -295q-2 -172 -5 -227v-45q-7 -248 1 -459t8 -233q0 -6 -12 -6t-15 4q0 20 1 63t-1 70q-16 211 -8 547l-162 -8h-2v-318q4 -74 4 -352q0 -6 -13 -6t-14 6l-6 454l2 238q0 125 8 243t4 332q-3 214 2 258q5 45 2 111t13 154
q27 6 27 -6q-16 -80 -12 -142t-3 -113q-6 -52 -3 -265q3 -214 -4 -328t-7 -240h2l160 8h2v33q0 333 8 455q10 153 10 275v87q0 186 11 226q2 2 15 2t13 -11z" />
    <glyph glyph-name="I" unicode="I" horiz-adv-x="456" 
d="M260 1763q-29 -171 -37 -1003v-111q0 -245 10 -532v-101q68 -10 107 -4q14 0 14 -12q4 -14 -10 -14q-30 -4 -48 -4t-84 8t-87 6q-22 -2 -23 10q0 14 13 14q43 6 90 -2v97q-8 348 -8 534v111q0 390 7 546t11 264t18 193q-51 -4 -75 -10h-4q-12 0 -13 10q-4 12 9 17
q37 10 95 9q57 -1 83 0t26 -13q4 -10 -12 -15q-39 0 -59 2h-23z" />
    <glyph glyph-name="J" unicode="J" horiz-adv-x="403" 
d="M285 1757q0 14 14 15q12 0 12 -15v-22q-4 -97 4 -209t-2 -281l-4 -33q-2 -34 2 -310t0 -327q20 -162 -8 -434l-4 -24v-2q-9 -37 -23 -65t-22 -50q-18 -47 -59 -47l-13 2q-63 6 -67 70l-6 90q-18 233 -9 309q4 14 15 10q12 0 12 -14q-10 -74 8 -303l6 -92q4 -37 45 -43
q29 -6 43 28q4 14 15 38q12 24 30 73l2 22q29 272 9 430v2q4 51 0 327t-2 312l4 33q10 166 2 279t-4 211v20z" />
    <glyph glyph-name="K" unicode="K" 
d="M174 606v6l-10 742q0 154 6 301l2 133q4 12 17 12t10 -14l-2 -131q-6 -147 -7 -301l7 -328q0 -41 1 -120t1 -113q10 37 24 73q70 178 183 713q10 51 40 195q4 14 16 10t11 -17q-150 -712 -225 -909q-10 -27 -29 -94q55 -60 71 -142t55 -244q40 -162 50 -211
q9 -49 33 -111t32 -88t-7 -29l-2 -2q-12 0 -13 10q-10 39 -30 92q-27 59 -39 127q-11 68 -47 200t-58 242q-6 51 -51 121q-18 -98 -8 -230t6 -349l-2 -162q0 -12 -13 -12t-14 12l2 162q4 216 -3 318t-7 138z" />
    <glyph glyph-name="L" unicode="L" horiz-adv-x="335" 
d="M131 -14q-12 0 -12 12q-18 348 -15 888q4 540 21 892q0 14 13 14t14 -14q-16 -371 -20 -881t13 -885h125q14 0 15 -12q0 -14 -15 -14h-139z" />
    <glyph glyph-name="M" unicode="M" horiz-adv-x="675" 
d="M340 1248q0 -34 2 -78q2 -46 3 -87t3 -71q30 188 53 285q23 96 43 237q16 168 52 258q2 8 12 8h14q2 0 10 -4q39 -47 29 -149l-4 -31q-6 -207 -2 -345t4 -220q18 -745 51 -1035q0 -14 -12 -14h-2q-12 0 -12 12q-33 289 -52 1037q0 83 -5 241t3 326q5 10 5 31
q4 88 -19 123q-29 -84 -45 -242q-19 -142 -25 -164q-9 -34 -45 -235t-49 -201v-2q-8 -8 -18 0q-10 14 -21 303l-4 65q-10 70 -41 182t-41 183q-16 63 -32 100q-33 -91 -41 -233t-13 -176q-49 -434 -41 -1356q0 -12 -13 -12t-13 12q-8 924 41 1358q4 39 12 182t43 236v2
l10 20q4 6 10 6q18 6 38 -52q18 -58 28 -106t40 -162q30 -112 40 -180v-6q4 -12 4 -46z" />
    <glyph glyph-name="N" unicode="N" 
d="M121 -12q-12 0 -13 24t5 234l2 63q4 143 -3 358q-8 215 -8 361t21 639q0 73 4 107v6l4 6q2 0 2 2h2q10 2 17 -4q25 -35 59 -375q2 -15 3 -35t3 -32t11 -74q10 -64 58 -364t63 -386t69 -416q12 134 16 362t10 466t4 457q-1 220 15 397q0 14 14 10q12 0 13 -14
q-18 -190 -16 -423t-4 -452q-5 -219 -10 -489t-24 -400v-4q-7 -18 -16 -18h-2q-10 2 -12 12l-213 1315q1 13 -3 41t-12 116t-28 210v-21q-20 -497 -20 -565t6 -354q7 -286 3 -439l-2 -63q-6 -205 -4 -244q0 -10 -12 -14h-2z" />
    <glyph glyph-name="O" unicode="O" horiz-adv-x="432" 
d="M238 1755q-45 0 -74 -67q-51 -135 -50 -300t-15 -527t-5 -507q0 -104 8 -188q10 -117 78 -148q55 16 72 129q25 207 27 303t17 312q15 217 10 354t36 436q2 36 -4 68t-10 61q-10 68 -82 74h-8zM178 -10q-4 0 -4 2q-38 16 -62 50t-34 83t-11 151t-4 202t11 424t13 492
q-1 169 52 304q11 27 21 43t34 29t54 12q98 -10 106 -99q4 -25 10 -57q13 -69 -6 -158q-28 -270 -24 -380t-12 -326q-16 -214 -17 -316q-2 -102 -29 -303q-10 -131 -94 -153h-4z" />
    <glyph glyph-name="P" unicode="P" horiz-adv-x="464" 
d="M129 743q16 1 55 11t54 18q59 31 81 258q24 172 23 239q-2 65 -9 161t-9 151q0 88 -48 129q-28 27 -69 23q-66 -10 -68 -17q0 -154 -2 -198t1 -98t1 -101t-1 -262q2 -214 -9 -314zM113 1428q-2 58 -2 130t6 177q2 10 88 22q51 7 97 -33t48 -120t9 -174t9 -171t-22 -231
q-20 -242 -96 -280q-16 -9 -63 -19q-48 -10 -52 -12h-6q-10 -199 4 -711q0 -2 -6 -2h-13q-8 0 -8 2q-16 506 3 846q4 66 3 250t1 226t0 100z" />
    <glyph glyph-name="Q" unicode="Q" horiz-adv-x="509" 
d="M221 0q96 22 62 125q-7 26 -7 53q-4 4 -4 10q-24 25 -34 38q-10 12 -1 22t16 4t14 -15t12 -14q10 81 21 353t11 305q18 199 31 512q6 182 -55 305q-20 37 -33 41q-10 0 -48 -47t-46 -185l-4 -51q-29 -270 -27 -662t33 -681q7 -62 22 -83q14 -21 37 -30zM303 193v-3
q33 -46 103 -157q8 -12 -7 -19q-2 -2 -8 -2t-12 11q-7 11 -19 31t-27 44q-15 25 -24 37v-4q4 -33 7 -63q2 -30 -20 -58q-22 -27 -73 -37h-6q-33 10 -51 36t-23 44q-4 18 -8 56q-31 291 -33 685t27 666q4 16 4 49q8 145 62 211q37 47 63 45t53 -55q66 -139 58 -317
q-12 -315 -31 -514q0 -37 -11 -318t-26 -360q2 -2 2 -8z" />
    <glyph glyph-name="R" unicode="R" horiz-adv-x="503" 
d="M150 1438v-779q66 -2 106 24t45 105q53 537 29 848q-4 45 -45 76t-121 19q-14 -152 -14 -293zM387 -20q-4 0 -12 8q-47 98 -113 327q-76 248 -110 318h-2v-639q0 -12 -14 -12t-13 12v1444q0 109 14 305q0 6 10 12q102 18 162 -29q43 -31 47 -88q25 -315 -28 -852
q-10 -145 -148 -153q44 -91 108 -315t111 -318q6 -10 -1 -15t-11 -5z" />
    <glyph glyph-name="S" unicode="S" horiz-adv-x="423" 
d="M72 379q0 6 13 6t13 -6v-213q0 -70 24 -117t56 -50t65 44q32 47 36 115q20 270 20 444q-4 141 -74 248q-3 2 -29 40t-30 79q-23 184 -6 616v23q0 98 24 137q20 37 62 33h8q53 -4 70 -33v-4q23 -94 22 -236q6 -60 6 -131q0 -10 -13 -8t-13 6q-4 41 -8 168q-3 127 -19 193
q-10 14 -45 18h-10q-56 5 -58 -143v-25q-16 -430 7 -610q3 -42 55 -109q78 -118 79 -266t-22 -442q-6 -76 -42 -129t-81 -54h-4q-47 3 -77 57t-29 136v213z" />
    <glyph glyph-name="T" unicode="T" horiz-adv-x="401" 
d="M115 1722h-27q-6 0 -5 14t5 13q44 -2 114 2t115 -2q2 0 5 -12t-11 -15q-20 2 -84 2v-2q-31 -180 -23 -423t5 -539v-359q2 -101 11 -201t12 -141q2 -41 4 -57t-11 -20h-2q-12 0 -12 12q-24 241 -29 407v361q4 295 -5 529t24 433h-6q-25 -2 -80 -2z" />
    <glyph glyph-name="U" unicode="U" horiz-adv-x="493" 
d="M231 8q96 0 109 170q-8 212 7 630t11 546t1 236t6 143q0 6 13 5t13 -5q0 -35 -5 -143t-1 -234q4 -127 -11 -547t-7 -631q-14 -197 -136 -196q-102 0 -108 180q-14 42 -21 506v8q-2 127 1 551t8 522q0 6 13 5t13 -5q-4 -78 -7 -511t-1 -562v-8q6 -473 21 -504
q8 -156 81 -156z" />
    <glyph glyph-name="V" unicode="V" horiz-adv-x="593" 
d="M385 -16v-7q0 -10 -12 -10h-2q-12 0 -13 15q-43 117 -116 714q-31 242 -45 320t-39 192q-76 340 -72 539q0 6 13 6t14 -6q-4 -184 69 -535q53 -221 96 -603t87 -554q25 335 37 477t32 493q19 351 27 466t39 242q2 2 14 2t12 -9q-31 -126 -37 -204t-13 -208
q-6 -130 -20 -386t-42 -565q-28 -308 -29 -379z" />
    <glyph glyph-name="W" unicode="W" horiz-adv-x="655" 
d="M367 426v-16q0 -150 32 -336q6 51 23 129q37 213 44 302t19 256t21 261q31 461 55 735q4 16 14 12q16 0 13 -14q-23 -270 -54 -711t-40 -535q-8 -93 -38 -261t-42 -256q0 -4 -12 -4t-15 4q-47 231 -47 418v16q0 94 -1 207t-1 137q-31 -233 -51 -489l-4 -43
q-8 -78 -43 -250q-2 -6 -14 -4t-13 8v2q0 108 -49 368q-27 172 -33 302q-7 130 -31 536t-24 553q0 14 13 14t13 -14q0 -150 24 -551t34 -554q8 -153 28 -262t43 -292q25 144 25 146l4 45q55 551 63 591q8 39 17 39h8q12 -4 8 -12q11 -65 11 -477z" />
    <glyph glyph-name="X" unicode="X" horiz-adv-x="593" 
d="M475 -2q-12 0 -12 10q-11 42 -29 168t-32 171t-91 470q-4 -31 -16 -75t-76 -484q-25 -199 -37 -258q0 -12 -12 -12l-2 2q-12 0 -12 14q12 59 37 258q63 438 75 488t29 143q-3 27 -71 415t-87 447q-4 13 8 17t17 -9q16 -49 80 -411t65 -370q2 -7 2 -9l4 26q0 8 10 52
t50 351q41 306 49 365q2 12 16 13q12 -4 11 -17q-25 -139 -52 -355t-39 -292t-14 -94t-9 -58t-11 -73q78 -463 97 -523t37 -183q18 -122 27 -171q4 -12 -10 -16h-2z" />
    <glyph glyph-name="Y" unicode="Y" horiz-adv-x="593" 
d="M338 858v-133q-18 -170 14 -547q6 -59 15 -184q0 -10 -13 -14q-14 0 -14 12q-8 125 -14 184q-33 377 -15 549v133q-23 47 -44 193t-76 330q-56 184 -58 343q0 14 12 15q14 0 15 -15q2 -154 73 -399q33 -115 40 -141t21 -124q14 -96 28 -151q34 137 44 229t35 255l5 26
q8 43 14 147t22 167q4 14 16 10t9 -17q-15 -58 -21 -162t-14 -149l-4 -26q-27 -172 -36 -245t-29 -173q-19 -99 -25 -113z" />
    <glyph glyph-name="Z" unicode="Z" 
d="M298 -16l-105 -4q-13 0 -13 14q23 688 182 1745q-18 2 -72 -3q-94 -9 -96 8t5 17q77 0 117 3t65 -1q14 0 10 -14q-160 -1042 -184 -1741q27 2 93 2t80 2q15 2 15 -11t-4 -13q-23 -4 -93 -4z" />
    <glyph glyph-name="bracketleft" unicode="[" horiz-adv-x="428" 
d="M164 -46q0 20 -4 83q-4 62 0 80q-6 51 -6 173t-4 179l4 37q0 117 -4 151q-2 121 3 186t6 205t-2 182t-3 204t-6 225t-3 63l111 2q6 0 6 -13v-15q-84 -4 -84 -6q0 -160 3 -190t1 -55q-2 -26 -2 -38l4 -487q0 -23 -3 -81q-3 -57 -1 -111t2 -232t8 -324t9 -154l-2 -36v-5
l88 -2q2 -2 1 -22t-3 -21q-19 2 -67 3t-50 -1q-2 0 -2 20z" />
    <glyph glyph-name="backslash" unicode="\" horiz-adv-x="405" 
d="M360 -2q-32 0 -32 8q-10 130 -53 440t-72 462t-39 231t-51 243t-55 238t-33 137l22 12q12 -12 29 -88q150 -655 198 -1009t99 -674h-13z" />
    <glyph glyph-name="bracketright" unicode="]" horiz-adv-x="425" 
d="M252 1417q0 -59 1 -95t-2 -300t-1 -340t3 -176t4 -146t8 -154q5 -110 9 -169l9 -68q0 -6 -39 -2t-88 0l-13 37q5 2 51 2t52 -2l-2 35q0 128 -13 262q-14 319 -9 479t6 308t3 319q2 170 2 227l13 97q0 2 -11 2t-45 1t-37 2t-3 27q4 0 59 -2h22q31 -2 39 0l-18 -241v-103z
" />
    <glyph glyph-name="underscore" unicode="_" horiz-adv-x="655" 
d="M150 -66q-120 0 -123 3q-4 16 -7 24v8q57 -6 119 -6l254 6q115 0 197 -4l43 4q2 -2 2 -9t-4 -23h-35l-99 -3h-347z" />
    <glyph glyph-name="grave" unicode="`" horiz-adv-x="178" 
d="M66 1663q29 -51 81 -123l-14 -2q-8 10 -102 113q-5 6 15 10t20 2z" />
    <glyph glyph-name="a" unicode="a" horiz-adv-x="567" 
d="M377 886v29q0 86 -30 97q-51 16 -97 6q-111 -39 -123 -137q-9 -45 -23 -125t-15 -103t-6 -63t1 -98q6 -56 11 -112q25 -280 57 -308q44 -37 110 -4t82 76q30 80 26 117q-3 38 3 127q6 88 3 186t-1 193t2 119zM395 391q0 -223 29 -267t52 -52t50 -9l13 -43q-46 -23 -69 4
q-50 50 -66 77q-17 28 -19 30q-14 -14 -57 -61t-76 -58q-33 -10 -65 -11t-61 27q-68 68 -63 566q3 132 33 242t42 128t56 47q44 28 105 29t94 -32q21 -69 21 -135v-96l-6 -161q-13 -188 -13 -225z" />
    <glyph glyph-name="b" unicode="b" horiz-adv-x="585" 
d="M461 831q-1 57 -57 115t-115 55q-27 0 -117 -12q6 -73 7 -267t5 -244t4 -212t2 -217q170 -33 241 22q36 28 38 79q-8 360 -8 681zM500 242v-54q2 -53 -6 -61q-8 -49 -42 -84t-85 -41q-170 -12 -209 4q-6 152 -12 502q-5 350 -8 419t-5 223t-6 236q6 76 6 230l33 -17
q-8 -391 0 -579q10 2 98 12t142 -32q53 -42 66 -100q28 -124 26 -274t0 -260t2 -124z" />
    <glyph glyph-name="c" unicode="c" horiz-adv-x="526" 
d="M397 256v47l-2 25q1 14 13 11t16 -7q-2 -28 -2 -94t-5 -122t-30 -75q-67 -59 -137 -42t-113 103q-27 55 -31 121q-8 315 -2 541q2 68 29 201q8 39 45 63t82 14q45 -8 75 -36t41 -53q34 -80 34 -120l-4 -98q0 -8 -8 -6t-11 6q2 35 0 67l-3 48q-2 37 -14 55q-10 18 -20 39
q-10 20 -43 50t-74 27t-65 -58q-28 -50 -30 -216q-3 -165 -5 -200q-10 -313 19 -397q10 -29 51 -75t80 -42q74 4 90 49q21 48 22 99q2 51 2 75z" />
    <glyph glyph-name="d" unicode="d" horiz-adv-x="489" 
d="M391 999q-1 11 -67 17t-105 2q-59 -18 -77 -47t-29 -137q-59 -367 8 -684q4 -52 47 -80q43 -27 113 -27l51 2q45 0 57 18t10 80q-8 467 -8 856zM379 1592q0 10 13 20t14 0q2 -47 6 -119q4 -73 4 -207t2 -262t-1 -294q-3 -168 1 -240t6 -224t3 -198t-17 -60q-6 -8 -106 -7
t-128 13q-96 39 -100 166l-15 318q4 49 9 192t28 244q4 34 44 68t72 34t92 3q59 3 83 -13l-2 215q2 70 -3 206t-5 145z" />
    <glyph glyph-name="e" unicode="e" horiz-adv-x="487" 
d="M117 512q16 0 117 -4t118 -6q31 330 2 430q-16 56 -42 72t-79 14q-96 0 -106 -88q-10 -102 -10 -418zM377 496q0 -2 -2 -8t-6 -6q-3 1 -9 0t-19 0t-28 1l-196 4q2 -31 -1 -99t-4 -124q-3 -154 33 -205q25 -33 68 -28q133 14 133 223q14 14 23 2q1 -49 -17 -119
q-35 -139 -153 -139q-37 0 -49 6q-13 6 -19 8t-12 12t-11 16q-5 5 -10 41q-6 37 -8 44q-16 307 2 596q2 59 1 117t4 95t33 65t68 37t89 1t66 -38t27 -126t5 -226q-6 -130 -7 -139t-1 -11z" />
    <glyph glyph-name="f" unicode="f" horiz-adv-x="489" 
d="M96 518v25q16 4 101 4q0 11 -4 115t-5 112q4 70 2 283t0 253t4 75q2 57 8 94q13 78 81 110q72 37 124 10t60 -108q2 -98 0 -188t2 -129q0 -4 -10 -10t-13 7q4 63 0 127t-4 101l2 51q0 102 -51 126q-36 16 -75 0q-38 -15 -57 -36t-26 -66q-8 -44 -10 -62t-5 -74t-5 -120
t5 -137q7 -74 1 -245q0 -8 8 -289h99q4 0 7 -12t-9 -15l-97 -2l4 -561q-33 -6 -34 8q0 14 2 258t-4 295h-101z" />
    <glyph glyph-name="g" unicode="g" horiz-adv-x="466" 
d="M111 780v-51l2 -403q0 -109 6 -146t33 -55q4 -5 54 -20t94 -4t44 34q12 351 11 415t6 229t1 220q-2 5 -45 13t-94 5t-69 -23t-28 -59q-14 -55 -15 -155zM82 228v649q2 71 43 119t94 44q139 -10 154 -14q22 -11 6 -682q-7 -505 -2 -559t-8 -107q-15 -72 -97 -76t-135 40
q-24 12 -34 69q-11 57 -11 107l2 88l2 16q4 2 29 2q6 -41 2 -130t20 -113q25 -31 85 -43t83 4q27 24 27 71l-6 154q0 39 7 116t1 84q-7 6 -34 -6t-62 -8q-92 10 -129 47t-37 128z" />
    <glyph glyph-name="h" unicode="h" horiz-adv-x="501" 
d="M127 958q-26 -182 10 -958q-4 -6 -18 -5t-17 7q-2 313 -10 797q0 209 -5 312t-4 295t7 206l16 -8l5 -5q6 -27 3 -153t3 -286q6 -159 8 -165q27 18 129 9l31 -9q31 -5 65 -29t44 -61q9 -37 14 -105q4 -68 9 -138t4 -218t-3 -290q-2 -140 -1 -150t-11 -13t-17 7
q2 120 1 318t4 354t-46 256q-28 33 -100 48t-121 -16z" />
    <glyph glyph-name="i" unicode="i" horiz-adv-x="200" 
d="M86 416q-8 124 -10 276t-6 248q2 4 12 1t14 -17q6 -92 9 -304t9 -304t5 -310q-1 -6 -13 -10t-22 -1t-8 14t4 209t6 198zM88 1161q8 0 14 -20t1 -37t-13 -21q-27 6 -29 31q0 6 4 18q8 29 23 29z" />
    <glyph glyph-name="j" unicode="j" horiz-adv-x="372" 
d="M207 -105v-65q3 -82 -17 -152t-71 -68t-94 22t-60 82q-16 62 -6 114l35 -2q0 -2 -1 -43q-2 -90 48 -111q75 -46 102 4q28 50 30 90q7 107 6 249q-1 141 3 236t1 404t5 334l25 -18q-2 -12 -3 -251t2 -405q3 -167 1 -251t-3 -114t-2 -33t-1 -22zM217 1171q14 -8 14 -36
q-10 -41 -19 -44t-16 8q-6 11 -4 33t25 39z" />
    <glyph glyph-name="k" unicode="k" horiz-adv-x="450" 
d="M137 1597v-444q-10 -342 -10 -418v-10q-4 -17 -4 -37t2 -26q16 47 83 188t81 190q4 8 17 -1t13 -13q-45 -137 -106 -244q-74 -119 -74 -133q0 -20 48 -113q48 -94 67 -156q20 -62 50 -160t65 -206q0 -4 -29 -4q-25 68 -98 295t-117 313q-7 0 -6 -261q2 -261 6 -349
q-8 -6 -35 0q-8 84 -8 203q20 570 20 790l9 613q0 2 7 0t13 -8t6 -9z" />
    <glyph glyph-name="l" unicode="l" horiz-adv-x="221" 
d="M129 1186l8 -805q0 -4 -2 -186t2 -187l-55 -8q18 104 24 406t0 440q-8 138 -8 246l8 405l3 2l26 -18q4 -20 -1 -109q-5 -88 -5 -186z" />
    <glyph glyph-name="m" unicode="m" horiz-adv-x="696" 
d="M565 626q0 86 4 154q0 160 -55 209q-32 32 -88 -74q-13 -23 -24 -43t-14 -120t-6 -112t-2 -158t-3 -468q-25 -19 -29 -2q-4 35 0 158t4 248t10 237q8 189 2 231t-26 97q-44 43 -98 -23q-28 -34 -41 -83q-5 -8 -19 -161t-19 -277q-5 -123 -11 -199t10 -228q-8 -8 -22 -11
t-17 9q-4 120 0 178t6 180t18 297q15 175 20 247t-20 92q-13 12 -20 6l-15 -15q-21 -17 -27 -11q-7 5 -5 9q20 20 43 35q25 8 30 6t25 -71l14 -45q47 113 148 110q20 0 51 -139q8 8 29 39q20 31 34 44t25 29q34 45 51 23q20 -14 42 -58t25 -98t0 -158q-3 -102 2 -366t3 -336
q-12 -12 -35 -5q-8 3 -7 19q14 228 10 373q-3 145 -3 231z" />
    <glyph glyph-name="n" unicode="n" horiz-adv-x="503" 
d="M144 -4q-10 0 -11 6q4 31 3 112t3 135t-1 210t1 235l13 213q0 31 -2 107h-3q-10 0 -49 -43q-6 0 -12 6t-4 12q62 66 78 41t14 -110q19 33 31 45t18 19q7 7 17 13q10 5 16 9l18 11q12 7 17 9q39 23 76 -12t40 -87q3 -53 5 -151t5 -172t0 -290q-3 -214 5 -312q-2 -4 -20 -5
t-19 3q2 47 11 214t4 275q-5 107 -2 228t-4 183t-36 99q-26 18 -39 15q-12 -2 -18 -2t-23 -14q-16 -14 -32 -26q-35 -29 -55 -77t-27 -301q-2 -49 3 -203t-2 -208t11 -179q-20 -8 -30 -8z" />
    <glyph glyph-name="o" unicode="o" horiz-adv-x="409" 
d="M307 211v51q16 399 17 445l4 133q0 29 -2 57q-4 131 -140 131q-28 -4 -58 -38t-36 -87q-24 -203 -14 -523t35 -331q115 -88 174 19q20 40 20 143zM354 830v-37q-4 -203 -8 -255t-6 -198t-13 -218q-24 -155 -141 -151q-111 2 -118 162q-7 203 -9 203q6 78 -2 238t2 272
q4 113 82 182q29 27 81 25t79 -33q53 -62 53 -190z" />
    <glyph glyph-name="p" unicode="p" horiz-adv-x="489" 
d="M377 745l-2 102q0 100 -23 136q-18 35 -88 42t-143 -13q8 -52 4 -190t-2 -177t-2 -506q2 -6 53 -21q106 -31 140 17t44 133q2 16 6 41t10 177t3 259zM82 -383q8 108 8 215q12 236 10 352t-1 428q1 311 -3 408q-2 10 6 14t32 6t47 6q24 4 96 -1t90 -41t20 -119
q29 -187 19 -317t-12 -182q-3 -52 -8 -123t-40 -123q-34 -52 -60 -61t-64 -4t-62 15q-25 10 -37 14l-8 -485q-3 -4 -17 -5t-16 3z" />
    <glyph glyph-name="q" unicode="q" horiz-adv-x="475" 
d="M115 981q-23 -78 -17 -178q0 -45 -4 -153t-1 -168t2 -154t9 -154q35 -106 144 -78q6 2 40 10t46 20q10 12 7 66q-3 52 -1 101t-4 134t1 146t4 241t-13 194q-32 30 -106 16t-107 -43zM362 217v-445q0 -143 29 -137q9 2 23 11q14 8 20 6t-2 -29q0 -2 -22 -10t-25 -8
q-51 -15 -49 189t0 308q-16 -6 -43 -20t-70 -14q-135 0 -145 114q-25 233 -14 440q12 208 12 254q0 77 12 107q17 43 105 51l22 6q94 24 139 -14q8 -6 8 -176q8 -47 4 -271q-4 -223 -4 -362z" />
    <glyph glyph-name="r" unicode="r" horiz-adv-x="458" 
d="M281 1012q-7 0 -19 -10t-16 -13q-4 -4 -29 -24t-37 -47q-43 -96 -37 -525q2 -135 0 -214t13 -181q-41 -7 -41 4q4 12 4 112v111q2 57 -2 235t4 234l12 213q0 31 -2 107h-4q-8 0 -47 -43q-6 0 -12 6t-5 12q61 66 77 41t16 -110q36 62 82 86q6 4 18 11t16 9q39 23 76 -12
t41 -87t4 -174t4 -173q-20 -10 -20 -2q-2 63 1 172q3 108 -4 160t-36 89q-27 18 -39 15q-12 -2 -18 -2z" />
    <glyph glyph-name="s" unicode="s" horiz-adv-x="385" 
d="M72 942q-4 102 99 100q48 0 81 -17t39 -40q29 -130 18 -295l-6 -2q-13 0 -16 6q18 125 -13 289q-4 23 -47 37t-87 1t-46 -55t2 -284q0 -45 20 -78t42 -46q20 -13 72 -44q52 -30 63 -62q12 -32 12 -90v-110q0 -188 -31 -220t-96 -32q-44 -4 -70 24t-30 62t-2 113
q2 78 -2 104q0 8 12 8t14 -6q-2 -16 -1 -108t4 -124t44 -48q41 -17 83 7t46 85q16 74 13 201t-31 150t-58 40q-75 44 -88 59q-12 15 -19 23t-9 15t-7 23t-5 314z" />
    <glyph glyph-name="t" unicode="t" horiz-adv-x="436" 
d="M354 987q-119 0 -118 -2q0 -483 -4 -597t1 -249t5 -144t-20 -9t-23 2q0 329 16 997q-8 0 -59 -2t-70 0q-2 2 0 13t4 14q10 4 127 4l2 461q1 8 17 -4q16 -13 16 -15l-12 -444q94 0 118 -4v-21z" />
    <glyph glyph-name="u" unicode="u" horiz-adv-x="487" 
d="M391 840q0 109 10 188q23 0 25 -6q-2 -37 -5 -130t-6 -130t-1 -94q2 -56 1 -200t-2 -170t1 -114q2 -89 -13 -135q-8 -29 -55 -43t-108 -12q-115 0 -140 80q-16 98 -22 241q-6 142 -10 208t-4 244t8 259q-1 16 28 0q-8 -88 -8 -266v-211l14 -336q0 -121 35 -158
q29 -27 105 -29t110 21q35 16 39 98t-4 113v438q2 35 2 144z" />
    <glyph glyph-name="v" unicode="v" horiz-adv-x="514" 
d="M78 1030q14 0 14 -4q10 -70 20 -186q39 -479 113 -760q6 -25 19 -31q14 0 29 28t35 243t28 269t29 208q20 154 32 227q1 4 15 4t14 -4q-28 -75 -38 -189q-9 -113 -19 -171t-27 -230q-20 -284 -64 -404q-11 -30 -34 -32q-23 8 -49 123q-70 338 -109 692q-14 172 -25 217
h17z" />
    <glyph glyph-name="w" unicode="w" horiz-adv-x="657" 
d="M209 112q0 -8 1 -16t3 -15t4 -12t4 -3q21 48 33 328t20 321q29 197 56 248q2 0 2 -2t4 -3q10 -25 30 -141q20 -115 33 -263q14 -148 19 -183l4 -52q4 -111 16 -181t23 -75q37 50 50 360q5 118 13 166t18 218q9 170 17 223q7 6 21 6h16q-18 -76 -34 -267t-18 -216
q-3 -25 -8 -120q-4 -95 -10 -127t-11 -101q-5 -68 -23 -132q-18 -65 -39 -67q-23 0 -44 205q-22 205 -41 433t-36 265q-35 -15 -58 -522q-8 -201 -14 -235t-8 -48t-3 -23q-8 -71 -32 -71q-23 2 -35 109q-19 111 -23 162q-5 51 -11 82t-24 181q-19 150 -32 224
q-31 262 -30 266t14 2t20 -14q8 -45 24 -231t26 -238q9 -52 30 -205q20 -153 26 -191t7 -45z" />
    <glyph glyph-name="x" unicode="x" horiz-adv-x="538" 
d="M120 1042q14 0 13 -2q20 -50 55 -164q34 -114 44 -140t28 -95q18 -68 25 -86q31 75 90 273t63 214q2 2 12 0t13 -4q-15 -40 -158 -516q31 -60 99 -279q69 -219 73 -227q-20 -13 -24 -6q-28 61 -95 275q-67 215 -73 215q-13 -23 -19 -35t-16 -35t-16 -37t-33 -81
q-26 -67 -57 -154q-32 -86 -58 -156q-2 -2 -13 2t-12 6q176 459 203 514q7 0 -108 365q-49 145 -50 149q0 4 14 4z" />
    <glyph glyph-name="y" unicode="y" horiz-adv-x="512" 
d="M434 451q0 -163 -6 -281t2 -360q0 -92 -7 -138t-32 -58q-25 -13 -77 -12q-129 4 -169 74q-16 25 -16 131l33 -2q2 0 4 -55t25 -75q22 -21 57 -33q23 -12 74 -8t65 36q16 42 11 150t-4 140t2 70t2 55t-1 30l-24 -11q-200 -87 -248 -2q-39 66 -24 475q5 137 0 197t0 158
t5 117q20 -2 35 -9q0 -30 -9 -244q-21 -487 24 -673q10 -25 105 -11t136 38l6 260q4 76 6 215q1 139 2 169t1 136t2 110t10 2t15 -8t7 -10l-10 -350q-2 -59 -2 -223z" />
    <glyph glyph-name="z" unicode="z" horiz-adv-x="385" 
d="M262 995h-90q-66 0 -84 2q-2 1 -2 17t4 16q66 -8 119 -6t74 2q20 0 20 -2q-14 -43 -52 -216q-38 -172 -48 -230t-39 -263t-41 -274q147 0 170 2q14 -2 8 -39q-59 -6 -176 0h-43q10 51 35 224q25 172 37 230t31 171t34 176q43 150 43 190z" />
    <glyph glyph-name="braceleft" unicode="{" horiz-adv-x="503" 
d="M221 463q0 18 2 40q2 21 -2 105t-4 97q0 33 -47 69t-47 50t28 54t40 135q24 178 15 371q-9 192 3 256t78 52l57 -9q2 -2 -4 -13t-8 -11q-16 0 -37 7t-29 4t-22 -17q-14 -20 -15 -74q-4 -25 -4 -43t8 -72v-338q8 -169 -55 -270q-6 -10 -18 -29q0 -4 28 -18q54 -33 60 -99
t6 -251q-6 -371 -5 -405t8 -48t35 -24t53 -13q26 -4 36 -6l-12 -26q-14 4 -56 5t-71 29q-25 29 -25 112v56q2 29 2 89v87l2 107v41z" />
    <glyph glyph-name="bar" unicode="|" horiz-adv-x="245" 
d="M141 -90q0 -47 -1 -49t-19 -2t-19 2v98q4 59 4 217v295q0 76 3 115q0 936 -5 987v16q0 2 37 2q2 -28 -2 -67q4 -59 4 -498l-4 -620v-156q4 -100 0 -221q-4 -16 -1 -44t3 -75z" />
    <glyph glyph-name="braceright" unicode="}" horiz-adv-x="456" 
d="M156 -8q10 0 36 -9t42 12q18 21 19 55t3 70t-6 118q0 264 -6 288q-5 233 73 338q0 10 -28 29q-55 31 -61 107t-7 192q7 417 4 435q-9 45 -26 52q-42 17 -64 19t-33 4l2 29q14 -4 58 -6q87 -4 94 -107q-2 -53 0 -90v-150l-2 -105v-84q0 -23 -2 -45t-1 -44t5 -59
q4 -39 4 -63t47 -62t47 -48t-28 -57q-27 -37 -40 -156q-12 -119 -12 -144t1 -175t5 -206t-6 -119q-12 -63 -79 -52l-58 8q-2 1 4 13q5 12 15 12z" />
    <glyph glyph-name="asciitilde" unicode="~" horiz-adv-x="516" 
d="M29 776q35 61 94 86q16 10 65 5q48 -5 66 -21t28 -30q28 -43 73 -47q46 -3 69 22q6 8 31 32l28 -20q-10 -19 -43 -39t-51 -23q-70 0 -96 17q-14 14 -44 48t-77 33t-82 -36q-18 -31 -31 -43z" />
    <glyph glyph-name="exclamdown" unicode="&#xa1;" horiz-adv-x="155" 
d="M71 955q3 41 -1 131t-4 110v59l22 7q6 -16 6 -56v-809q0 -362 -4 -477l-2 -53q0 -14 -45 -33l12 422q13 70 13 364t3 335zM50 1335q-22 35 0 63t50 2t8 -55q-20 -30 -33 -28t-25 18z" />
    <glyph glyph-name="cent" unicode="&#xa2;" horiz-adv-x="403" 
d="M115 629q18 -66 82 -80q1 139 -7 455t-18 399q-53 -14 -59 -53q-6 -70 -7 -360t9 -361zM223 705q4 -50 4 -154q41 6 56 37q12 22 12 86t2 65h20q3 -4 5 -40t-8 -86t-29 -60l-54 -23q6 -55 7 -213h-31q0 149 -4 175l-4 34q-55 10 -82 47t-31 83t-4 288t2 272t3 68
q3 110 50 130q12 5 23 7l10 4q2 27 -3 121t-11 127l28 4q8 -76 17 -252q93 -8 100 -56q4 -27 4 -40l-4 -65l-16 -2v102q-2 41 -86 41q0 -43 4 -80t6 -59t4 -36t6 -232t4 -226v-67z" />
    <glyph glyph-name="degree" unicode="&#xb0;" horiz-adv-x="350" 
d="M113 1546q75 -37 117 -11t53 79q12 35 -8 83q-19 48 -45 59t-60 2t-44 -20q-9 -10 -31 -30t-23 -22q-28 -33 -14 -74t55 -66zM305 1575q-82 -127 -217 -39q-39 27 -53 75q-15 48 13 92t94 73q122 53 168 -95q22 -67 -5 -106z" />
    <glyph glyph-name="questiondown" unicode="&#xbf;" horiz-adv-x="339" 
d="M61 993q1 22 21 49t33 50q63 88 49 268q-4 49 -4 86q0 6 18 4t17 -14q0 -18 2 -126q2 -160 -45 -218q-36 -41 -50 -74t-12 -82q-4 -78 -2 -400t-1 -358q-3 -37 1 -108q0 -98 3 -114t36 -26t69 4t41 34q9 36 9 172l-2 167q0 82 2 96l28 -2q4 -5 4 -43t-2 -188
q-1 -150 -14 -201q-6 -18 -32 -44t-50 -23q-92 -12 -110 26q-5 16 -4 45q5 90 -5 301v719zM179 1534q-32 0 -36 37q0 39 43 37q29 0 27 -37t-34 -37z" />
    <glyph glyph-name="multiply" unicode="&#xd7;" horiz-adv-x="536" 
d="M463 944l-178 -178l45 -35q39 -31 79 -63t66 -54q-16 -20 -29 -28q-16 10 -77 63q-61 61 -105 94l-26 -28q-10 -13 -66 -65t-90 -79l-21 31q88 66 136 115l45 49q-10 10 -79 83t-93 89l22 23q25 -19 72 -71t64 -68t34 -31q174 174 178 174q16 -11 23 -21z" />
    <glyph glyph-name="divide" unicode="&#xf7;" horiz-adv-x="669" 
d="M365 477q-48 -22 -56 21q-2 10 -5 15q-8 14 32 34q31 6 43 -25q2 -6 -2 -24t-12 -21zM543 782h-35q-14 -6 -169 -3t-171 3h-41q-25 -4 -37 -2q-2 0 -8 31q14 2 45 2h41q252 -6 334 -2q37 6 86 2l-10 -29q-10 -2 -35 -2zM381 1044q-18 -33 -43 -26q-4 0 -11 5t-14 7
q-10 10 -7 33t24 28q22 5 30 -1t16 -24q8 -16 5 -22z" />
    <glyph glyph-name="endash" unicode="&#x2013;" horiz-adv-x="737" 
d="M719 590q2 0 1 -16t-3 -17h-90l-299 -2q-31 -2 -100 0q-70 2 -98 0t-67 2h-16q-4 16 -6 25v8q57 -6 134 -6l304 6q119 0 197 -4q41 4 43 4z" />
    <glyph glyph-name="emdash" unicode="&#x2014;" horiz-adv-x="761" 
d="M764 560q0 -16 -6 -17h-110l-361 -2h-193q-25 -2 -74 2l-8 -2q-10 0 -11 2t3 19t6 18q62 -6 372 -6t337 4h43q2 -2 2 -18z" />
    <glyph glyph-name="quoteleft" unicode="&#x2018;" horiz-adv-x="129" 
d="M33 1448q-17 111 47 201q14 -8 14 -13q-37 -43 -41 -80l39 -6q6 -12 7 -49t-7 -47q-6 -4 -31 -10q-27 0 -28 4z" />
    <glyph glyph-name="quoteright" unicode="&#x2019;" horiz-adv-x="129" 
d="M71 1667q24 0 27 -4q11 -116 -47 -199q-3 -3 -11 2q-7 6 -5 9q37 45 41 79l-39 9q-6 10 -7 47t7 47q10 10 34 10z" />
    <glyph glyph-name="quotedblleft" unicode="&#x201c;" horiz-adv-x="231" 
d="M135 1448q-17 111 47 201q14 -8 15 -13q-37 -43 -41 -80l39 -6q6 -12 7 -49t-7 -47q-6 -4 -31 -10q-27 0 -29 4zM33 1448q-17 111 47 201q14 -8 14 -13q-37 -43 -41 -80l39 -6q6 -12 7 -49t-7 -47q-6 -4 -31 -10q-27 0 -28 4z" />
    <glyph glyph-name="quotedblright" unicode="&#x201d;" horiz-adv-x="225" 
d="M71 1667q24 0 27 -4q11 -116 -47 -199q-3 -3 -11 2q-7 6 -5 9q37 45 41 79l-39 9q-6 10 -7 47t7 47q10 10 34 10zM167 1671q24 0 28 -4q8 -119 -48 -199q-4 -4 -11 2t-5 9q37 45 41 80l-39 8q-6 10 -7 47t7 47q10 10 34 10z" />
    <glyph glyph-name="bullet" unicode="&#x2022;" horiz-adv-x="315" 
d="M84 731q40 16 55 14q16 -2 41 -6t52 -36q26 -31 20 -75t-34 -71t-64 -25t-58 27q-47 59 -30 148q2 18 18 24z" />
    <glyph glyph-name="ellipsis" unicode="&#x2026;" horiz-adv-x="518" 
d="M416 131q66 -8 80 -53q6 -20 -8 -45q-30 -51 -77 -30q-19 9 -31 42t15 72q7 14 21 14zM236 131q66 -8 79 -53q6 -20 -8 -45q-29 -52 -77 -30q-19 9 -25 28q-16 47 10 86q7 14 21 14zM57 131q66 -8 80 -53q6 -20 -8 -45q-29 -52 -77 -30q-19 9 -25 28q-16 47 10 86
q8 14 20 14z" />
    <glyph glyph-name="minus" unicode="&#x2212;" horiz-adv-x="614" 
d="M514 758h-35q-14 -6 -169 -3t-171 3h-41q-12 -2 -37 2v31q14 2 41 2h37q322 -6 336 -7q35 6 86 2l-12 -28q-10 -2 -35 -2z" />
    </font>
</defs>
</svg>
